<svg id="Layer_1" data-name="Layer 1" xmlns="http://www.w3.org/2000/svg" xmlns:xlink="http://www.w3.org/1999/xlink" viewBox="0 0 152 152"><defs><style>.cls-1{fill:url(#linear-gradient);}</style><linearGradient id="linear-gradient" x1="76" y1="149.99" x2="76" y2="2.01" gradientUnits="userSpaceOnUse"><stop offset="0" stop-color="#093c61"/><stop offset="1" stop-color="#3870c4"/></linearGradient></defs><title>disputelab_favicon_152x152</title><path class="cls-1" d="M144.78,37.57A17.82,17.82,0,0,0,114.55,52.9h0A17.8,17.8,0,0,1,94.15,73.57v0A17.8,17.8,0,0,0,73.56,93.9h0a17.79,17.79,0,0,1-18.76,20.83,17.82,17.82,0,0,1-5.29-27.87l0,0A17.78,17.78,0,0,0,52.52,72.1,17.81,17.81,0,0,1,73.94,52.81v0A17.81,17.81,0,0,0,89.36,23.22L89.15,23c-.16-.18-.31-.36-.48-.53l-.21-.19A17.77,17.77,0,0,0,64.68,21l0,0a17.8,17.8,0,0,1-28.07-7.31h0a17.84,17.84,0,1,0-5.67,20.19h0a17.81,17.81,0,0,1,27.75,6.1A17.8,17.8,0,0,1,38,58.45v0a17.81,17.81,0,0,0-16.1,29.62l.39.43.12.14c.11.11.24.21.35.32.31.3.63.6,1,.87l.12.1a17.91,17.91,0,0,0,4.84,2.82v0a17.8,17.8,0,0,1,7.71,28l0,0c-.14.16-.26.34-.39.5s-.4.52-.58.79-.32.48-.47.73-.29.47-.42.72-.29.55-.43.83-.23.47-.33.72-.23.57-.34.85-.19.52-.28.79-.16.53-.23.8-.16.6-.22.9-.1.49-.14.73-.11.66-.14,1,0,.46-.06.69,0,.68,0,1,0,.49,0,.74,0,.64,0,1,.06.59.1.88.07.53.12.8.15.73.23,1.09c0,.15.06.29.09.44l.05.17c.11.4.24.79.38,1.17.06.17.12.35.18.52.14.36.31.72.47,1.08.09.19.17.38.26.56s.33.6.5.89.25.44.39.66.33.47.5.71.36.5.55.74.34.39.51.59.44.51.67.75l.15.17c.14.14.3.26.44.4s.44.41.67.61.51.41.77.61l.57.42c.31.21.62.41.94.6l.5.29c.34.19.69.37,1,.54l.5.23c.35.15.7.29,1.06.42l.58.2c.34.11.67.21,1,.3l.69.17.94.18.8.12.89.08.84,0h.92l.79,0c.35,0,.7-.07,1.05-.12l.64-.09c.42-.07.83-.17,1.25-.27l.33-.07.13,0c.44-.12.88-.27,1.32-.43l.38-.13c.4-.16.8-.34,1.2-.52l.45-.21c.33-.17.66-.36,1-.55l.58-.34c.26-.17.51-.35.76-.53s.47-.33.7-.51.4-.35.61-.52.5-.43.73-.66l.17-.15c.14-.14.26-.29.4-.44s.42-.45.62-.69.4-.5.59-.75.3-.4.44-.6.39-.59.57-.89.22-.37.33-.55.34-.65.5-1,.18-.38.27-.58.27-.64.39-1,.16-.45.24-.68.18-.6.26-.9.14-.54.2-.82.11-.53.15-.8.1-.63.14-.95,0-.48.06-.72,0-.67,0-1,0-.49,0-.73,0-.65,0-1-.06-.56-.09-.84c0-.1,0-.21,0-.31h0c0-.06,0-.12,0-.19l0-.13a17.81,17.81,0,0,1,21.28-20.36v0A17.8,17.8,0,0,0,108.8,88.61h0a17.82,17.82,0,0,1,21.23-20.68v0a17.83,17.83,0,0,0,14.72-30.31Z"/></svg>