<svg id="Layer_1" data-name="Layer 1" xmlns="http://www.w3.org/2000/svg" xmlns:xlink="http://www.w3.org/1999/xlink" viewBox="0 0 16 16"><defs><style>.cls-1{fill:url(#linear-gradient);}</style><linearGradient id="linear-gradient" x1="8" y1="15.25" x2="8" y2="0.75" gradientUnits="userSpaceOnUse"><stop offset="0" stop-color="#093c61"/><stop offset="1" stop-color="#3870c4"/></linearGradient></defs><title>disputelab_favicon_16x16</title><path class="cls-1" d="M14.74,4.24a1.75,1.75,0,0,0-3,1.5h0a1.74,1.74,0,0,1-2,2h0a1.74,1.74,0,0,0-2,2h0a1.74,1.74,0,0,1-1.84,2A1.74,1.74,0,0,1,5.4,9.06h0a1.74,1.74,0,0,0,.3-1.44A1.74,1.74,0,0,1,7.8,5.73h0A1.74,1.74,0,0,0,9.31,2.83l0,0,0-.05,0,0a1.74,1.74,0,0,0-2.33-.13h0a1.74,1.74,0,0,1-2.75-.72h0a1.75,1.75,0,1,0-.56,2h0a1.74,1.74,0,0,1,2.72.6,1.74,1.74,0,0,1-2,1.81h0a1.74,1.74,0,0,0-1.58,2.9l0,0h0l0,0,.09.09h0a1.75,1.75,0,0,0,.47.28h0a1.74,1.74,0,0,1,.75,2.74h0l0,0L4,12.51l0,.07,0,.07,0,.08,0,.07,0,.08,0,.08,0,.08,0,.09v.24s0,.07,0,.1,0,0,0,.07,0,.06,0,.09v.16l0,.11V14l0,.11,0,.05,0,.11,0,.05,0,.09,0,.06,0,.07.05.07,0,.06.07.07,0,0,0,0,.07.06.08.06.06,0,.09.06,0,0,.1.05,0,0,.1,0,.06,0,.1,0,.07,0,.09,0h.58l.12,0h0l.13,0h0l.12-.05,0,0,.1-.05.06,0,.07-.05.07-.05.06-.05.07-.07,0,0,0,0,.06-.07.06-.07,0-.06L7,14.41l0-.05,0-.1,0-.06,0-.1,0-.07,0-.09,0-.08v-.24s0-.07,0-.1,0,0,0-.07,0-.06,0-.1v-.11h0v0h0a1.74,1.74,0,0,1,2.08-2h0a1.74,1.74,0,0,0,1.93-2h0a1.75,1.75,0,0,1,2.08-2h0a1.75,1.75,0,0,0,1.44-3Z"/></svg>